<?xml version="1.0" encoding="UTF-8" standalone="no"?>
<!-- Created with Inkscape (http://www.inkscape.org/) -->

<svg
   version="1.1"
   id="svg1"
   width="200"
   height="300"
   viewBox="0 0 200 300"
   xmlns="http://www.w3.org/2000/svg"
   xmlns:svg="http://www.w3.org/2000/svg">
  <defs
     id="defs1" />
  <g
     id="g1">
    <path
       style="fill:#d4aa00"
       d="m 101.3581,293.09328 c -18.360683,-1.73741 -32.862313,-7.33852 -42.332523,-16.35052 -6.30468,-5.99963 -8.51242,-10.81154 -8.54434,-18.62289 -0.026,-6.35896 1.05385,-9.78705 5.07884,-16.12361 1.49541,-2.35424 1.52855,-3.35487 0.32269,-9.74567 -1.04918,-5.56046 -1.08898,-7.97269 -0.18151,-11.00155 1.40874,-4.70197 7.8966,-10.95013 15.22767,-14.66506 5.46461,-2.76913 22.25167,-7.45281 26.8074,-7.47942 4.560843,-0.0266 5.009823,-0.93491 3.452653,-6.98469 -1.940593,-7.53945 -5.519353,-15.10995 -11.353233,-24.01666 -6.61398,-10.09768 -13.60624,-25.94886 -15.45989,-35.04696 -0.8333,-4.09001 -0.78974,-10.82078 -1.26643,-14.90064 -0.87213,-7.46427 -2.17972,-6.90387 4.49867,-10.3161 2.50674,-1.28078 4.24196,-3.15959 4.23214,-3.53574 -0.01,-0.37614 -3.33996,-4.898453 -7.40029,-10.049574 -4.06033,-5.15112 -8.12109,-11.00112 -9.02392,-13 -1.60021,-3.542923 -1.78568,-3.636933 -7.37465,-3.737977 -3.36596,-0.06085 -7.5809,-0.929164 -10.20822,-2.102969 -4.88934,-2.184408 -17.39102,-13.300053 -19.44972,-17.29338 -2.15882,-4.187524 -2.55549,-10.135862 -1.18711,-17.801734 0.71686,-4.015954 0.93401,-7.530012 0.48257,-7.809017 -1.57269,-0.971976 -0.85537,-4.388528 0.9292,-4.425761 0.9625,-0.02008 3.00575,-2.01896 4.54054,-4.44195 1.5348,-2.422992 6.15471,-6.937389 10.26648,-10.031994 7.47594,-5.6265558 7.47594,-5.6265558 16.20946,-5.7314138 6.85085,-0.08225 9.97037,0.378141 14.47115,2.1357238 8.63655,3.372634 14.84801,7.991475 18.97007,14.106146 6.12825,9.090667 7.038033,18.980658 2.71369,29.5 -0.67829,1.65 -1.27558,3.474297 -1.32732,4.053994 -0.1194,1.337812 -9.42281,9.641058 -13.50278,12.051152 -3.49571,2.064965 -3.54324,1.414928 1.06609,14.579522 1.67242,4.776568 4.9932,10.816175 6.08799,11.806948 1.79249,1.62218 1.68572,0.02406 1.78858,-1.442267 0.0511,-0.727812 -0.98817,-2.285819 -1.65867,-3.732606 -0.8506,-1.835411 3.05765,-2.897151 3.88662,-3.42221 0.80652,-0.510842 0.98742,-2.350709 1.43164,-2.514105 1.07442,-0.395198 1.77153,0.89954 2.9292,-0.149377 2.67045,-2.41959 7.578143,-1.130117 9.000553,0.789059 0.9655,1.302681 1.36227,1.150868 2.82444,-1.080684 0.95841,-1.462715 1.59893,-3.300689 3.07144,-2.070443 1.78566,1.49188 14.23099,-31.716601 18.93758,-51.118983 0.96728,-3.9875 2.16021,-7.25 2.65097,-7.25 0.49075,0 0.89228,2.905641 0.89228,6.456979 0,8.226604 -5.42443,29.653689 -11.33751,44.784338 -4.03883,10.334759 -7.3531,10.303059 -2.75543,13.824727 1.43209,1.096937 11.0768,-24.934744 17.10167,-48.816044 4.52901,-17.952034 6.24113,-17.805252 4.85117,0.415895 -1.59887,20.959725 -7.58119,43.660828 -16.0279,60.821025 -4.68621,9.52043 -6.2864,11.45868 -8.02486,9.72022 -0.66393,-0.66393 -1.52776,-1.20714 -1.91962,-1.20714 -0.39186,0 -2.76964,3.56651 -5.28394,7.92557 -2.51431,4.35906 -5.66901,9.19656 -7.01045,10.75 -2.43897,2.82443 -2.43897,2.82443 -5.552423,-0.14751 -3.46795,-3.31032 -4.84144,-3.01495 -8.44901,1.81701 -2.00868,2.6904 -5.69415,2.92732 3.39298,8.04918 4.57329,2.57769 5.3943,4.9014 6.630644,8.9086 2.755789,8.932 14.368179,22.68733 23.855109,29.22123 3.04127,2.09459 5.52957,4.161 5.52957,4.59201 0,0.85873 -1.67047,1.67468 -2.09761,3.40016 -0.98029,3.95998 -6.33265,7.84293 -9.7575,9.7831 l -5.64489,3.19781 10.27495,1.19999 c 19.65624,2.29562 31.29704,6.68784 39.22505,14.80012 4.5,4.60459 4.5,4.60459 4.5,15.46466 0,9.68813 0.23018,11.11249 2.13303,13.19907 7.23176,7.93008 7.88996,21.36013 1.4869,30.339 -10.29133,14.4313 -39.1463,23.16778 -67.61993,20.47341 z m 4.83289,-187.80369 c 1.01817,-1.74335 1.40424,-3.16972 0.85794,-3.16972 -0.5463,0 -2.24336,1.33018 -3.77172,3.06139 -1.96614,2.22709 -2.13524,4.74026 -1.38628,4.4906 0.69303,-0.23101 3.28189,-2.63892 4.30006,-4.38227 z M 72.858097,77.11987 c 0,-0.55 -0.47655,-1 -1.05901,-1 -0.58246,0 -0.78091,0.45 -0.44099,1 0.33992,0.55 0.81648,1 1.05902,1 0.24254,0 0.44098,-0.45 0.44098,-1 z m -18,-2.883347 c -3.575,-0.939013 -7.5125,-2.265234 -8.75,-2.947158 -1.2375,-0.681925 -2.25,-1.010586 -2.25,-0.730359 0,0.883676 5.78042,3.542211 9.71751,4.469288 6.85154,1.613349 7.92236,0.952262 1.28249,-0.791771 z m 7,-2.023033 c 0,-0.49851 -0.9,-0.671025 -2,-0.383369 -1.1,0.287656 -2,0.695528 -2,0.90638 0,0.210853 0.9,0.383369 2,0.383369 1.1,0 2,-0.407871 2,-0.90638 z m 9,-1.562235 c 0,-0.892084 -0.58659,-1.243517 -1.49425,-0.895215 -0.82184,0.31537 -1.24529,0.976246 -0.94099,1.468615 0.87262,1.411923 2.43524,1.043989 2.43524,-0.5734 z M 60.385227,66.37192 c -0.37933,-1.511373 -0.85358,-2.91184 -1.05389,-3.112149 -0.20031,-0.200309 -3.20123,0.122275 -6.66872,0.716855 -3.46748,0.594579 -7.87952,0.839997 -9.80452,0.545374 -3.5,-0.535678 -3.5,-0.535678 -1.10966,1.186098 3.04495,2.193292 7.21095,3.180329 13.96807,3.309411 5.35841,0.102361 5.35841,0.102361 4.66872,-2.645589 z m 26.87786,-4.144123 c 1.04774,-1.15936 1.59441,-2.107927 1.21482,-2.107927 -1.47383,0 -5.56176,3.262471 -7.17718,5.727907 -1.69634,2.588941 -1.69634,2.588941 1.18052,0.538444 1.58227,-1.127773 3.7341,-2.999064 4.78184,-4.158424 z m -17.25045,0.876878 c -0.41387,-4.174905 -0.43191,-4.199335 -2.51141,-3.401355 -0.9682,0.371533 -1.64313,1.750397 -1.64313,3.356872 0,3.19306 0.80967,4.243555 2.95124,3.829052 1.12877,-0.218474 1.45508,-1.244777 1.2033,-3.784569 z m -15.4645,-2.572813 c 2.94004,-0.588008 2.94004,-0.588008 1.19947,-7.592199 -0.95731,-3.852305 -1.88658,-7.13495 -2.06504,-7.294766 -0.56736,-0.5081 -14.75547,-7.525027 -15.21547,-7.525027 -0.24252,0 -1.85795,1.789129 -3.58986,3.975842 -2.85089,3.599542 -3.08386,4.409713 -2.4615,8.559967 0.46908,3.128011 1.0941,4.428073 1.9677,4.092842 1.91238,-0.733851 4.89328,1.838068 4.20604,3.628976 -0.32646,0.850763 -0.32458,1.815836 0.004,2.144607 0.76949,0.769491 12.1211,0.776433 15.95448,0.0098 z m 28.06517,-1.176218 c 0.23966,-0.719778 -1.14096,-1.91683 -3.20584,-2.779593 -3.24556,-1.356083 -3.85632,-1.354588 -5.81058,0.01423 -2.0756,1.453806 -2.08607,1.531169 -0.21129,1.561396 1.08488,0.01749 2.8638,0.705499 3.95316,1.528904 2.24633,1.697909 4.65033,1.549813 5.27455,-0.324933 z m -51.41013,-3.778902 c -0.32568,-0.848721 -0.80662,-1.32866 -1.06875,-1.066531 -0.26213,0.262128 -0.17998,0.956536 0.18255,1.543128 0.98605,1.595461 1.56238,1.28551 0.8862,-0.476597 z m 37.47223,-1.268045 c 0.26052,-1.768988 -0.70642,-2.607255 -5.40372,-4.684624 -3.14656,-1.391558 -5.90625,-2.344873 -6.13265,-2.118478 -0.8184,0.81841 5.77583,6.697225 6.80132,6.063435 0.5788,-0.357715 1.30437,0.313287 1.61238,1.491116 0.69213,2.646723 2.69312,2.165198 3.12267,-0.751449 z m 14.74156,-0.72063 c -1.06762,-0.807509 -2.41762,-1.453885 -3,-1.436394 -0.58237,0.01749 -0.18536,0.692492 0.88226,1.5 1.06762,0.807509 2.41762,1.453885 3,1.436394 0.58238,-0.01749 0.18537,-0.692492 -0.88226,-1.5 z m 9.03722,-3.620405 c 2.62692,-4.161314 4.70003,-15.894751 2.7928,-15.806802 -2.11268,0.09742 -8.14557,17.868997 -6.593,19.421559 0.88464,0.884645 1.07289,0.705587 3.8002,-3.614757 z m -15.67942,0.779384 c -0.96906,-0.867091 -6.91667,-3.639638 -6.91667,-3.224285 0,1.262368 3.39984,3.597109 5.2381,3.597109 1.15238,0 1.90774,-0.167771 1.67857,-0.372824 z m 9.47634,-1.208963 c 0.92046,-2.398674 0.77042,-2.53722 -1.32832,-1.226536 -1.06443,0.664744 -1.71287,1.568558 -1.44099,2.008474 0.79902,1.292834 2.11583,0.921022 2.76931,-0.781938 z m -19.39301,-2.682076 c 0,-0.695124 -2.66546,-2.441924 -5.92325,-3.881777 -7.22281,-3.192288 -7.05616,-1.266788 0.20727,2.394626 2.86879,1.446127 5.32848,2.656702 5.46598,2.690168 0.1375,0.03346 0.25,-0.507892 0.25,-1.203017 z m 14,-1.113692 c 0,-2.964373 2.17725,-4.875396 4.5272,-3.973634 1.62048,0.621837 1.73151,0.140829 1.23396,-5.346161 -0.3007,-3.316213 -1.46967,-8.115941 -2.59771,-10.666064 -1.86498,-4.216096 -2.36216,-4.636587 -5.48222,-4.636587 -5.06672,0 -9.72987,1.112284 -9.07891,2.16556 0.8291,1.341499 -1.54781,3.834441 -3.65596,3.834441 -1.668,0 -1.59387,0.641947 0.95278,8.25 2.61525,7.813024 2.99561,8.366049 7.18119,10.440975 5.72291,2.837032 6.91967,2.82518 6.91967,-0.06853 z m -17.8188,-11.601818 c -1.47466,-4.388655 -3.1312,-7.993459 -3.6812,-8.010675 -0.55,-0.01722 -2.27859,0.414417 -3.84131,0.959184 -2.69656,0.940026 -2.80536,1.208027 -2.13575,5.260675 0.38805,2.348604 0.79048,4.36903 0.89428,4.489836 0.1492,0.173632 10.54729,4.994897 11.26398,5.222747 0.0997,0.03168 -1.02535,-3.533112 -2.5,-7.921767 z m -28.52169,1.768936 c -0.65922,-0.407422 -1.45224,0.02254 -1.83898,0.997059 -1.33642,3.367562 -0.79406,4.402267 1.08874,2.077102 1.35853,-1.677716 1.57494,-2.564467 0.75024,-3.074161 z m 17.83113,4.195286 c -0.66353,-1.073614 -5.53808,-3.310063 -9.57774,-4.394273 -1.32709,-0.356181 0.0621,0.694 3.0871,2.333734 5.8564,3.174521 7.50199,3.696937 6.49064,2.060539 z m 39.43908,-8.782598 c 0.0499,-2.343172 -0.69874,-4.010459 -2.58645,-5.75993 -1.46121,-1.354199 -2.77852,-2.340404 -2.92735,-2.191567 -0.14884,0.148837 0.582,2.740805 1.62409,5.75993 1.04208,3.019124 1.94102,6.389316 1.99763,7.489316 0.10293,2 0.10293,2 0.96236,0 0.47269,-1.1 0.89106,-3.483987 0.92972,-5.297749 z m -40.92972,2.879536 c 0,-0.505016 -0.26501,-1.608838 -0.58893,-2.452936 -0.47842,-1.246756 -0.94751,-1.310785 -2.5,-0.341241 -2.37702,1.484473 -2.42744,2.4308 -0.16107,3.023064 2.889,0.754975 3.25,0.729551 3.25,-0.228887 z m -5.27633,-4.857297 c 1.93261,-1.234136 2.0357,-1.60798 0.7876,-2.856084 -1.24811,-1.248104 -1.89751,-1.137137 -4.9613,0.847758 -3.95471,2.562094 -4.353,3.454836 -1.79997,4.034576 1.85852,0.422031 2.4584,0.218554 5.97367,-2.02625 z m -1.97367,-6.729314 c 3.3698,-2.189141 4.25,-3.354745 4.25,-5.628063 0,-1.576913 -0.38931,-2.867114 -0.86514,-2.867114 -1.78819,0 -6.50726,4.517764 -9.27065,8.875177 -3.43826,5.421568 -3.68815,7.222781 -0.61421,4.427201 1.2375,-1.125439 4.1625,-3.288679 6.5,-4.807201 z m 12.41457,0.919726 c 3.61222,-1.867957 2.54282,-3.881534 -1.51992,-2.86185 -1.69352,0.425046 -2.64465,1.344058 -2.64465,2.555356 0,2.29602 0.27772,2.316459 4.16457,0.306494 z m 11.83543,-4.625355 c 1.18939,-0.745792 1.12068,-0.821385 -0.33178,-0.365053 -1.00749,0.316528 -2.91999,0.575505 -4.25,0.575505 -1.33002,0 -2.41822,0.458573 -2.41822,1.019052 0,1.116095 4.52746,0.320877 7,-1.229504 z m 18,-0.263868 c 0,-0.260876 -1.4625,-1.183134 -3.25,-2.049463 -3.25,-1.575144 -3.25,-1.575144 -0.88921,0.47432 2.212,1.920298 4.13921,2.653685 4.13921,1.575143 z m -30.73356,-1.12545 c 0.95675,-0.956752 -1.45163,-5.40023 -2.92695,-5.40023 -0.82165,0 -1.33949,1.159778 -1.33949,3 0,2.242424 0.46297,3 1.83334,3 1.00833,0 2.10323,-0.269896 2.4331,-0.59977 z m 20.48192,-2.885282 c -4.1541,-3.65621 -13.53399,-5.6856438 -18.12897,-3.922386 -1.39107,0.533803 -1.39022,0.827557 0.009,2.962385 1.40214,2.13994 2.39279,2.402027 10.2124,2.701803 4.7628,0.182589 9.10964,0.410295 9.65964,0.506014 0.55,0.09572 -0.23824,-0.915799 -1.75165,-2.247816 z"
       id="path1" />
  </g>
</svg>
